<svg width="101" height="73" viewBox="0 0 101 73" fill="none" xmlns="http://www.w3.org/2000/svg">
<path d="M35.8776 1.65212C29.1446 2.80006 19.7028 7.53532 14.2854 12.4858C8.86799 17.4363 6.00451 21.5976 3.06363 28.7005C1.28363 33.1488 1.12884 34.4402 0.896668 49.22C0.587102 64.1432 0.664493 65.1477 2.13493 67.3718C5.38538 72.1071 7.16538 72.5375 23.0306 72.5375C36.1098 72.5375 37.4255 72.394 39.902 71.0309C44.3907 68.448 44.7776 67.0131 44.7776 52.0181C44.7776 39.8212 44.6229 38.3863 43.2298 36.3056C40.7533 32.5748 37.6576 31.6421 27.8289 31.6421H19.1611L20.0898 29.9919C24.0367 22.9608 32.3176 17.6516 42.6881 15.5709L44.7776 15.1404V7.96581V0.791168L42.3011 0.862915C40.9081 0.934654 38.0446 1.22164 35.8776 1.65212Z" fill="#0F5B92"/>
<path d="M90.1289 1.93859C74.4958 5.45416 61.5715 17.2923 57.5471 32.0003C56.6958 35.0854 56.3862 40.1077 56.3862 50.8696C56.3862 72.6088 56.541 72.7523 79.6037 72.3935C93.9211 72.1783 94.2307 72.1783 96.2428 70.3846C100.19 66.9408 100.499 65.7211 100.499 51.9458C100.499 40.4664 100.345 38.9597 98.9515 36.8073C96.1655 32.5743 93.4568 31.6416 83.7054 31.6416C78.9072 31.6416 74.9602 31.4981 74.9602 31.2829C74.9602 30.0632 79.2167 25.0409 82.235 22.5298C86.4141 19.1577 90.6707 17.1488 96.475 15.8574L100.499 14.9964V7.89354V0.790649L97.6359 0.862396C96.0107 0.862396 92.6054 1.36462 90.1289 1.93859Z" fill="#0F5B92"/>
</svg>
