<svg width="797" height="199" viewBox="0 0 797 199" fill="none" xmlns="http://www.w3.org/2000/svg">
<g filter="url(#filter0_b_213_103)">
<rect x="43" y="43.0674" width="754" height="113" rx="28.5081" fill="white" fill-opacity="0.01"/>
<rect x="43.7502" y="43.8176" width="752.5" height="111.5" rx="27.7579" stroke="#CFCFCF" stroke-width="1.50043"/>
</g>
<g filter="url(#filter1_f_213_103)">
<rect x="43.6067" y="43.7455" width="693.198" height="111.782" rx="27.7579" stroke="#CFCFCF" stroke-width="1.50043"/>
</g>
<path d="M292.58 93.5038L289.5 88.0638H288.18V93.5038H285.38V79.5438H290.62C291.7 79.5438 292.62 79.7371 293.38 80.1238C294.14 80.4971 294.707 81.0105 295.08 81.6638C295.467 82.3038 295.66 83.0238 295.66 83.8238C295.66 84.7438 295.393 85.5771 294.86 86.3238C294.327 87.0571 293.533 87.5638 292.48 87.8438L295.82 93.5038H292.58ZM288.18 85.9638H290.52C291.28 85.9638 291.847 85.7838 292.22 85.4238C292.593 85.0505 292.78 84.5371 292.78 83.8838C292.78 83.2438 292.593 82.7505 292.22 82.4038C291.847 82.0438 291.28 81.8638 290.52 81.8638H288.18V85.9638ZM308.493 87.7238C308.493 88.1238 308.466 88.4838 308.413 88.8038H300.313C300.379 89.6038 300.659 90.2305 301.153 90.6838C301.646 91.1371 302.253 91.3638 302.973 91.3638C304.013 91.3638 304.753 90.9171 305.193 90.0238H308.213C307.893 91.0905 307.279 91.9705 306.373 92.6638C305.466 93.3438 304.353 93.6838 303.033 93.6838C301.966 93.6838 301.006 93.4505 300.153 92.9838C299.313 92.5038 298.653 91.8305 298.173 90.9638C297.706 90.0971 297.472 89.0971 297.472 87.9638C297.472 86.8171 297.706 85.8105 298.173 84.9438C298.639 84.0771 299.293 83.4105 300.133 82.9438C300.973 82.4771 301.939 82.2438 303.033 82.2438C304.086 82.2438 305.026 82.4705 305.853 82.9238C306.693 83.3771 307.339 84.0238 307.793 84.8638C308.259 85.6905 308.493 86.6438 308.493 87.7238ZM305.593 86.9238C305.579 86.2038 305.319 85.6305 304.813 85.2038C304.306 84.7638 303.686 84.5438 302.953 84.5438C302.259 84.5438 301.673 84.7571 301.193 85.1838C300.726 85.5971 300.439 86.1771 300.333 86.9238H305.593ZM320.996 82.4238V93.5038H318.176V92.1038C317.816 92.5838 317.343 92.9638 316.756 93.2438C316.183 93.5105 315.556 93.6438 314.876 93.6438C314.01 93.6438 313.243 93.4638 312.576 93.1038C311.91 92.7305 311.383 92.1905 310.996 91.4838C310.623 90.7638 310.436 89.9105 310.436 88.9238V82.4238H313.236V88.5238C313.236 89.4038 313.456 90.0838 313.896 90.5638C314.336 91.0305 314.936 91.2638 315.696 91.2638C316.47 91.2638 317.076 91.0305 317.516 90.5638C317.956 90.0838 318.176 89.4038 318.176 88.5238V82.4238H320.996ZM329.899 82.2638C331.219 82.2638 332.286 82.6838 333.099 83.5238C333.912 84.3505 334.319 85.5105 334.319 87.0038V93.5038H331.519V87.3838C331.519 86.5038 331.299 85.8305 330.859 85.3638C330.419 84.8838 329.819 84.6438 329.059 84.6438C328.286 84.6438 327.672 84.8838 327.219 85.3638C326.779 85.8305 326.559 86.5038 326.559 87.3838V93.5038H323.759V82.4238H326.559V83.8038C326.932 83.3238 327.406 82.9505 327.979 82.6838C328.566 82.4038 329.206 82.2638 329.899 82.2638ZM338.402 81.1038C337.908 81.1038 337.495 80.9505 337.162 80.6438C336.842 80.3238 336.682 79.9304 336.682 79.4638C336.682 78.9971 336.842 78.6104 337.162 78.3038C337.495 77.9838 337.908 77.8238 338.402 77.8238C338.895 77.8238 339.302 77.9838 339.622 78.3038C339.955 78.6104 340.122 78.9971 340.122 79.4638C340.122 79.9304 339.955 80.3238 339.622 80.6438C339.302 80.9505 338.895 81.1038 338.402 81.1038ZM339.782 82.4238V93.5038H336.982V82.4238H339.782ZM347.468 93.6838C346.401 93.6838 345.441 93.4505 344.588 92.9838C343.735 92.5038 343.061 91.8305 342.568 90.9638C342.088 90.0971 341.848 89.0971 341.848 87.9638C341.848 86.8305 342.095 85.8305 342.588 84.9638C343.095 84.0971 343.781 83.4305 344.648 82.9638C345.515 82.4838 346.481 82.2438 347.548 82.2438C348.615 82.2438 349.581 82.4838 350.448 82.9638C351.315 83.4305 351.995 84.0971 352.488 84.9638C352.995 85.8305 353.248 86.8305 353.248 87.9638C353.248 89.0971 352.988 90.0971 352.468 90.9638C351.961 91.8305 351.268 92.5038 350.388 92.9838C349.521 93.4505 348.548 93.6838 347.468 93.6838ZM347.468 91.2438C347.975 91.2438 348.448 91.1238 348.888 90.8838C349.341 90.6305 349.701 90.2571 349.968 89.7638C350.235 89.2705 350.368 88.6705 350.368 87.9638C350.368 86.9105 350.088 86.1038 349.528 85.5438C348.981 84.9705 348.308 84.6838 347.508 84.6838C346.708 84.6838 346.035 84.9705 345.488 85.5438C344.955 86.1038 344.688 86.9105 344.688 87.9638C344.688 89.0171 344.948 89.8305 345.468 90.4038C346.001 90.9638 346.668 91.2438 347.468 91.2438ZM361.442 82.2638C362.762 82.2638 363.829 82.6838 364.642 83.5238C365.455 84.3505 365.862 85.5105 365.862 87.0038V93.5038H363.062V87.3838C363.062 86.5038 362.842 85.8305 362.402 85.3638C361.962 84.8838 361.362 84.6438 360.602 84.6438C359.829 84.6438 359.215 84.8838 358.762 85.3638C358.322 85.8305 358.102 86.5038 358.102 87.3838V93.5038H355.302V82.4238H358.102V83.8038C358.475 83.3238 358.949 82.9505 359.522 82.6838C360.109 82.4038 360.749 82.2638 361.442 82.2638ZM383.47 83.8638C383.47 84.6105 383.29 85.3105 382.93 85.9638C382.583 86.6171 382.03 87.1438 381.27 87.5438C380.523 87.9438 379.577 88.1438 378.43 88.1438H376.09V93.5038H373.29V79.5438H378.43C379.51 79.5438 380.43 79.7305 381.19 80.1038C381.95 80.4771 382.517 80.9905 382.89 81.6438C383.277 82.2971 383.47 83.0371 383.47 83.8638ZM378.31 85.8838C379.083 85.8838 379.657 85.7105 380.03 85.3638C380.403 85.0038 380.59 84.5038 380.59 83.8638C380.59 82.5038 379.83 81.8238 378.31 81.8238H376.09V85.8838H378.31ZM386.878 81.1038C386.385 81.1038 385.971 80.9505 385.638 80.6438C385.318 80.3238 385.158 79.9304 385.158 79.4638C385.158 78.9971 385.318 78.6104 385.638 78.3038C385.971 77.9838 386.385 77.8238 386.878 77.8238C387.371 77.8238 387.778 77.9838 388.098 78.3038C388.431 78.6104 388.598 78.9971 388.598 79.4638C388.598 79.9304 388.431 80.3238 388.098 80.6438C387.778 80.9505 387.371 81.1038 386.878 81.1038ZM388.258 82.4238V93.5038H385.458V82.4238H388.258ZM390.305 87.9638C390.305 86.8171 390.538 85.8171 391.005 84.9638C391.471 84.0971 392.118 83.4305 392.945 82.9638C393.771 82.4838 394.718 82.2438 395.785 82.2438C397.158 82.2438 398.291 82.5905 399.185 83.2838C400.091 83.9638 400.698 84.9238 401.005 86.1638H397.985C397.825 85.6838 397.551 85.3105 397.165 85.0438C396.791 84.7638 396.325 84.6238 395.765 84.6238C394.965 84.6238 394.331 84.9171 393.865 85.5038C393.398 86.0771 393.165 86.8971 393.165 87.9638C393.165 89.0171 393.398 89.8371 393.865 90.4238C394.331 90.9971 394.965 91.2838 395.765 91.2838C396.898 91.2838 397.638 90.7771 397.985 89.7638H401.005C400.698 90.9638 400.091 91.9171 399.185 92.6238C398.278 93.3305 397.145 93.6838 395.785 93.6838C394.718 93.6838 393.771 93.4505 392.945 92.9838C392.118 92.5038 391.471 91.8371 391.005 90.9838C390.538 90.1171 390.305 89.1105 390.305 87.9638ZM409.196 82.2638C410.516 82.2638 411.582 82.6838 412.396 83.5238C413.209 84.3505 413.616 85.5105 413.616 87.0038V93.5038H410.816V87.3838C410.816 86.5038 410.596 85.8305 410.156 85.3638C409.716 84.8838 409.116 84.6438 408.356 84.6438C407.582 84.6438 406.969 84.8838 406.516 85.3638C406.076 85.8305 405.856 86.5038 405.856 87.3838V93.5038H403.056V82.4238H405.856V83.8038C406.229 83.3238 406.702 82.9505 407.276 82.6838C407.862 82.4038 408.502 82.2638 409.196 82.2638ZM417.698 81.1038C417.205 81.1038 416.792 80.9505 416.458 80.6438C416.138 80.3238 415.978 79.9304 415.978 79.4638C415.978 78.9971 416.138 78.6104 416.458 78.3038C416.792 77.9838 417.205 77.8238 417.698 77.8238C418.192 77.8238 418.598 77.9838 418.918 78.3038C419.252 78.6104 419.418 78.9971 419.418 79.4638C419.418 79.9304 419.252 80.3238 418.918 80.6438C418.598 80.9505 418.192 81.1038 417.698 81.1038ZM419.078 82.4238V93.5038H416.278V82.4238H419.078ZM421.125 87.9638C421.125 86.8171 421.358 85.8171 421.825 84.9638C422.292 84.0971 422.938 83.4305 423.765 82.9638C424.592 82.4838 425.538 82.2438 426.605 82.2438C427.978 82.2438 429.112 82.5905 430.005 83.2838C430.912 83.9638 431.518 84.9238 431.825 86.1638H428.805C428.645 85.6838 428.372 85.3105 427.985 85.0438C427.612 84.7638 427.145 84.6238 426.585 84.6238C425.785 84.6238 425.152 84.9171 424.685 85.5038C424.218 86.0771 423.985 86.8971 423.985 87.9638C423.985 89.0171 424.218 89.8371 424.685 90.4238C425.152 90.9971 425.785 91.2838 426.585 91.2838C427.718 91.2838 428.458 90.7771 428.805 89.7638H431.825C431.518 90.9638 430.912 91.9171 430.005 92.6238C429.098 93.3305 427.965 93.6838 426.605 93.6838C425.538 93.6838 424.592 93.4505 423.765 92.9838C422.938 92.5038 422.292 91.8371 421.825 90.9838C421.358 90.1171 421.125 89.1105 421.125 87.9638ZM438.116 93.6838C437.209 93.6838 436.396 93.5238 435.676 93.2038C434.956 92.8705 434.383 92.4238 433.956 91.8638C433.543 91.3038 433.316 90.6838 433.276 90.0038H436.096C436.149 90.4305 436.356 90.7838 436.716 91.0638C437.089 91.3438 437.549 91.4838 438.096 91.4838C438.629 91.4838 439.043 91.3771 439.336 91.1638C439.643 90.9505 439.796 90.6771 439.796 90.3438C439.796 89.9838 439.609 89.7171 439.236 89.5438C438.876 89.3571 438.296 89.1571 437.496 88.9438C436.669 88.7438 435.989 88.5371 435.456 88.3238C434.936 88.1105 434.483 87.7838 434.096 87.3438C433.723 86.9038 433.536 86.3105 433.536 85.5638C433.536 84.9505 433.709 84.3905 434.056 83.8838C434.416 83.3771 434.923 82.9771 435.576 82.6838C436.243 82.3905 437.023 82.2438 437.916 82.2438C439.236 82.2438 440.289 82.5771 441.076 83.2438C441.863 83.8971 442.296 84.7838 442.376 85.9038H439.696C439.656 85.4638 439.469 85.1171 439.136 84.8638C438.816 84.5971 438.383 84.4638 437.836 84.4638C437.329 84.4638 436.936 84.5571 436.656 84.7438C436.389 84.9305 436.256 85.1905 436.256 85.5238C436.256 85.8971 436.443 86.1838 436.816 86.3838C437.189 86.5705 437.769 86.7638 438.556 86.9638C439.356 87.1638 440.016 87.3705 440.536 87.5838C441.056 87.7971 441.503 88.1305 441.876 88.5838C442.263 89.0238 442.463 89.6105 442.476 90.3438C442.476 90.9838 442.296 91.5571 441.936 92.0638C441.589 92.5705 441.083 92.9705 440.416 93.2638C439.763 93.5438 438.996 93.6838 438.116 93.6838ZM458.1 90.8438H452.54L451.62 93.5038H448.68L453.7 79.5238H456.96L461.98 93.5038H459.02L458.1 90.8438ZM457.34 88.6038L455.32 82.7638L453.3 88.6038H457.34ZM469.997 82.2638C471.317 82.2638 472.383 82.6838 473.197 83.5238C474.01 84.3505 474.417 85.5105 474.417 87.0038V93.5038H471.617V87.3838C471.617 86.5038 471.397 85.8305 470.957 85.3638C470.517 84.8838 469.917 84.6438 469.157 84.6438C468.383 84.6438 467.77 84.8838 467.317 85.3638C466.877 85.8305 466.657 86.5038 466.657 87.3838V93.5038H463.857V82.4238H466.657V83.8038C467.03 83.3238 467.503 82.9505 468.077 82.6838C468.663 82.4038 469.303 82.2638 469.997 82.2638ZM476.359 87.9238C476.359 86.8038 476.579 85.8105 477.019 84.9438C477.473 84.0771 478.086 83.4105 478.859 82.9438C479.633 82.4771 480.493 82.2438 481.439 82.2438C482.159 82.2438 482.846 82.4038 483.499 82.7238C484.153 83.0305 484.673 83.4438 485.059 83.9638V78.7038H487.899V93.5038H485.059V91.8638C484.713 92.4105 484.226 92.8505 483.599 93.1838C482.973 93.5171 482.246 93.6838 481.419 93.6838C480.486 93.6838 479.633 93.4438 478.859 92.9638C478.086 92.4838 477.473 91.8105 477.019 90.9438C476.579 90.0638 476.359 89.0571 476.359 87.9238ZM485.079 87.9638C485.079 87.2838 484.946 86.7038 484.679 86.2238C484.413 85.7305 484.053 85.3571 483.599 85.1038C483.146 84.8371 482.659 84.7038 482.139 84.7038C481.619 84.7038 481.139 84.8305 480.699 85.0838C480.259 85.3371 479.899 85.7105 479.619 86.2038C479.353 86.6838 479.219 87.2571 479.219 87.9238C479.219 88.5905 479.353 89.1771 479.619 89.6838C479.899 90.1771 480.259 90.5571 480.699 90.8238C481.153 91.0905 481.633 91.2238 482.139 91.2238C482.659 91.2238 483.146 91.0971 483.599 90.8438C484.053 90.5771 484.413 90.2038 484.679 89.7238C484.946 89.2305 485.079 88.6438 485.079 87.9638ZM510.62 79.5438V93.5038H507.82V84.4238L504.08 93.5038H501.96L498.2 84.4238V93.5038H495.4V79.5438H498.58L503.02 89.9238L507.46 79.5438H510.62ZM523.688 87.7238C523.688 88.1238 523.661 88.4838 523.608 88.8038H515.508C515.574 89.6038 515.854 90.2305 516.348 90.6838C516.841 91.1371 517.448 91.3638 518.168 91.3638C519.208 91.3638 519.948 90.9171 520.388 90.0238H523.408C523.088 91.0905 522.474 91.9705 521.568 92.6638C520.661 93.3438 519.548 93.6838 518.228 93.6838C517.161 93.6838 516.201 93.4505 515.348 92.9838C514.508 92.5038 513.848 91.8305 513.368 90.9638C512.901 90.0971 512.668 89.0971 512.668 87.9638C512.668 86.8171 512.901 85.8105 513.368 84.9438C513.834 84.0771 514.488 83.4105 515.328 82.9438C516.168 82.4771 517.134 82.2438 518.228 82.2438C519.281 82.2438 520.221 82.4705 521.048 82.9238C521.888 83.3771 522.534 84.0238 522.988 84.8638C523.454 85.6905 523.688 86.6438 523.688 87.7238ZM520.788 86.9238C520.774 86.2038 520.514 85.6305 520.008 85.2038C519.501 84.7638 518.881 84.5438 518.148 84.5438C517.454 84.5438 516.868 84.7571 516.388 85.1838C515.921 85.5971 515.634 86.1771 515.528 86.9238H520.788ZM536.032 87.7238C536.032 88.1238 536.005 88.4838 535.952 88.8038H527.852C527.918 89.6038 528.198 90.2305 528.692 90.6838C529.185 91.1371 529.792 91.3638 530.512 91.3638C531.552 91.3638 532.292 90.9171 532.732 90.0238H535.752C535.432 91.0905 534.818 91.9705 533.912 92.6638C533.005 93.3438 531.892 93.6838 530.572 93.6838C529.505 93.6838 528.545 93.4505 527.692 92.9838C526.852 92.5038 526.192 91.8305 525.712 90.9638C525.245 90.0971 525.012 89.0971 525.012 87.9638C525.012 86.8171 525.245 85.8105 525.712 84.9438C526.178 84.0771 526.832 83.4105 527.672 82.9438C528.512 82.4771 529.478 82.2438 530.572 82.2438C531.625 82.2438 532.565 82.4705 533.392 82.9238C534.232 83.3771 534.878 84.0238 535.332 84.8638C535.798 85.6905 536.032 86.6438 536.032 87.7238ZM533.132 86.9238C533.118 86.2038 532.858 85.6305 532.352 85.2038C531.845 84.7638 531.225 84.5438 530.492 84.5438C529.798 84.5438 529.212 84.7571 528.732 85.1838C528.265 85.5971 527.978 86.1771 527.872 86.9238H533.132ZM541.335 84.7238V90.0838C541.335 90.4571 541.422 90.7305 541.595 90.9038C541.782 91.0638 542.089 91.1438 542.515 91.1438H543.815V93.5038H542.055C539.695 93.5038 538.515 92.3571 538.515 90.0638V84.7238H537.195V82.4238H538.515V79.6838H541.335V82.4238H543.815V84.7238H541.335ZM550.069 93.6838C549.163 93.6838 548.349 93.5238 547.629 93.2038C546.909 92.8705 546.336 92.4238 545.909 91.8638C545.496 91.3038 545.269 90.6838 545.229 90.0038H548.049C548.103 90.4305 548.309 90.7838 548.669 91.0638C549.043 91.3438 549.503 91.4838 550.049 91.4838C550.583 91.4838 550.996 91.3771 551.289 91.1638C551.596 90.9505 551.749 90.6771 551.749 90.3438C551.749 89.9838 551.563 89.7171 551.189 89.5438C550.829 89.3571 550.249 89.1571 549.449 88.9438C548.623 88.7438 547.943 88.5371 547.409 88.3238C546.889 88.1105 546.436 87.7838 546.049 87.3438C545.676 86.9038 545.489 86.3105 545.489 85.5638C545.489 84.9505 545.663 84.3905 546.009 83.8838C546.369 83.3771 546.876 82.9771 547.529 82.6838C548.196 82.3905 548.976 82.2438 549.869 82.2438C551.189 82.2438 552.243 82.5771 553.029 83.2438C553.816 83.8971 554.249 84.7838 554.329 85.9038H551.649C551.609 85.4638 551.423 85.1171 551.089 84.8638C550.769 84.5971 550.336 84.4638 549.789 84.4638C549.283 84.4638 548.889 84.5571 548.609 84.7438C548.343 84.9305 548.209 85.1905 548.209 85.5238C548.209 85.8971 548.396 86.1838 548.769 86.3838C549.143 86.5705 549.723 86.7638 550.509 86.9638C551.309 87.1638 551.969 87.3705 552.489 87.5838C553.009 87.7971 553.456 88.1305 553.829 88.5838C554.216 89.0238 554.416 89.6105 554.429 90.3438C554.429 90.9838 554.249 91.5571 553.889 92.0638C553.543 92.5705 553.036 92.9705 552.369 93.2638C551.716 93.5438 550.949 93.6838 550.069 93.6838Z" fill="white"/>
<path d="M102.68 118.344C102.371 117.693 101.923 117.192 101.336 116.84C100.749 116.477 100.067 116.296 99.288 116.296C98.5093 116.296 97.8053 116.477 97.176 116.84C96.5573 117.192 96.0667 117.704 95.704 118.376C95.352 119.037 95.176 119.805 95.176 120.68C95.176 121.554 95.352 122.322 95.704 122.984C96.0667 123.645 96.5573 124.157 97.176 124.52C97.8053 124.872 98.5093 125.048 99.288 125.048C100.376 125.048 101.272 124.722 101.976 124.072C102.68 123.421 103.091 122.541 103.208 121.432H98.76V120.248H104.76V121.368C104.675 122.285 104.387 123.128 103.896 123.896C103.405 124.653 102.76 125.256 101.96 125.704C101.16 126.141 100.269 126.36 99.288 126.36C98.2533 126.36 97.3093 126.12 96.456 125.64C95.6027 125.149 94.9253 124.472 94.424 123.608C93.9333 122.744 93.688 121.768 93.688 120.68C93.688 119.592 93.9333 118.616 94.424 117.752C94.9253 116.877 95.6027 116.2 96.456 115.72C97.3093 115.229 98.2533 114.984 99.288 114.984C100.472 114.984 101.517 115.277 102.424 115.864C103.341 116.45 104.008 117.277 104.424 118.344H102.68ZM107.437 116.072C107.16 116.072 106.925 115.976 106.733 115.784C106.541 115.592 106.445 115.357 106.445 115.08C106.445 114.802 106.541 114.568 106.733 114.376C106.925 114.184 107.16 114.088 107.437 114.088C107.704 114.088 107.928 114.184 108.109 114.376C108.301 114.568 108.397 114.802 108.397 115.08C108.397 115.357 108.301 115.592 108.109 115.784C107.928 115.976 107.704 116.072 107.437 116.072ZM108.141 117.496V126.264H106.685V117.496H108.141ZM113.887 124.92L116.607 117.496H118.159L114.719 126.264H113.023L109.583 117.496H111.151L113.887 124.92ZM127.591 121.544C127.591 121.821 127.575 122.114 127.543 122.424H120.535C120.589 123.288 120.882 123.965 121.415 124.456C121.959 124.936 122.615 125.176 123.383 125.176C124.013 125.176 124.535 125.032 124.951 124.744C125.378 124.445 125.677 124.05 125.847 123.56H127.415C127.181 124.402 126.711 125.09 126.007 125.624C125.303 126.146 124.429 126.408 123.383 126.408C122.551 126.408 121.805 126.221 121.143 125.848C120.493 125.474 119.981 124.946 119.607 124.264C119.234 123.57 119.047 122.77 119.047 121.864C119.047 120.957 119.229 120.162 119.591 119.48C119.954 118.797 120.461 118.274 121.111 117.912C121.773 117.538 122.53 117.352 123.383 117.352C124.215 117.352 124.951 117.533 125.591 117.896C126.231 118.258 126.722 118.76 127.063 119.4C127.415 120.029 127.591 120.744 127.591 121.544ZM126.087 121.24C126.087 120.685 125.965 120.21 125.719 119.816C125.474 119.41 125.138 119.106 124.711 118.904C124.295 118.69 123.831 118.584 123.319 118.584C122.583 118.584 121.954 118.818 121.431 119.288C120.919 119.757 120.626 120.408 120.551 121.24H126.087ZM141.331 117.496L136.051 130.392H134.547L136.275 126.168L132.739 117.496H134.355L137.107 124.6L139.827 117.496H141.331ZM146.619 126.408C145.797 126.408 145.051 126.221 144.379 125.848C143.717 125.474 143.195 124.946 142.811 124.264C142.437 123.57 142.251 122.77 142.251 121.864C142.251 120.968 142.443 120.178 142.827 119.496C143.221 118.802 143.755 118.274 144.427 117.912C145.099 117.538 145.851 117.352 146.683 117.352C147.515 117.352 148.267 117.538 148.939 117.912C149.611 118.274 150.139 118.797 150.523 119.48C150.917 120.162 151.115 120.957 151.115 121.864C151.115 122.77 150.912 123.57 150.507 124.264C150.112 124.946 149.573 125.474 148.891 125.848C148.208 126.221 147.451 126.408 146.619 126.408ZM146.619 125.128C147.141 125.128 147.632 125.005 148.091 124.76C148.549 124.514 148.917 124.146 149.195 123.656C149.483 123.165 149.627 122.568 149.627 121.864C149.627 121.16 149.488 120.562 149.211 120.072C148.933 119.581 148.571 119.218 148.123 118.984C147.675 118.738 147.189 118.616 146.667 118.616C146.133 118.616 145.643 118.738 145.195 118.984C144.757 119.218 144.405 119.581 144.139 120.072C143.872 120.562 143.739 121.16 143.739 121.864C143.739 122.578 143.867 123.181 144.123 123.672C144.389 124.162 144.741 124.53 145.179 124.776C145.616 125.01 146.096 125.128 146.619 125.128ZM160.805 117.496V126.264H159.349V124.968C159.072 125.416 158.682 125.768 158.181 126.024C157.69 126.269 157.146 126.392 156.549 126.392C155.866 126.392 155.253 126.253 154.709 125.976C154.165 125.688 153.733 125.261 153.413 124.696C153.104 124.13 152.949 123.442 152.949 122.632V117.496H154.389V122.44C154.389 123.304 154.608 123.97 155.045 124.44C155.482 124.898 156.08 125.128 156.837 125.128C157.616 125.128 158.229 124.888 158.677 124.408C159.125 123.928 159.349 123.229 159.349 122.312V117.496H160.805ZM164.719 118.92C164.975 118.418 165.338 118.029 165.807 117.752C166.287 117.474 166.869 117.336 167.551 117.336V118.84H167.167C165.535 118.84 164.719 119.725 164.719 121.496V126.264H163.263V117.496H164.719V118.92ZM181.274 117.496V126.264H179.818V124.968C179.54 125.416 179.151 125.768 178.65 126.024C178.159 126.269 177.615 126.392 177.018 126.392C176.335 126.392 175.722 126.253 175.178 125.976C174.634 125.688 174.202 125.261 173.882 124.696C173.572 124.13 173.418 123.442 173.418 122.632V117.496H174.858V122.44C174.858 123.304 175.076 123.97 175.514 124.44C175.951 124.898 176.548 125.128 177.306 125.128C178.084 125.128 178.698 124.888 179.146 124.408C179.594 123.928 179.818 123.229 179.818 122.312V117.496H181.274ZM188.004 117.336C189.071 117.336 189.935 117.661 190.596 118.312C191.257 118.952 191.588 119.88 191.588 121.096V126.264H190.148V121.304C190.148 120.429 189.929 119.762 189.492 119.304C189.055 118.834 188.457 118.6 187.7 118.6C186.932 118.6 186.319 118.84 185.86 119.32C185.412 119.8 185.188 120.498 185.188 121.416V126.264H183.732V117.496H185.188V118.744C185.476 118.296 185.865 117.949 186.356 117.704C186.857 117.458 187.407 117.336 188.004 117.336ZM193.422 121.848C193.422 120.952 193.604 120.168 193.966 119.496C194.329 118.813 194.825 118.285 195.454 117.912C196.094 117.538 196.809 117.352 197.598 117.352C198.281 117.352 198.916 117.512 199.502 117.832C200.089 118.141 200.537 118.552 200.846 119.064V114.424H202.318V126.264H200.846V124.616C200.558 125.138 200.132 125.57 199.566 125.912C199.001 126.242 198.34 126.408 197.582 126.408C196.804 126.408 196.094 126.216 195.454 125.832C194.825 125.448 194.329 124.909 193.966 124.216C193.604 123.522 193.422 122.733 193.422 121.848ZM200.846 121.864C200.846 121.202 200.713 120.626 200.446 120.136C200.18 119.645 199.817 119.272 199.358 119.016C198.91 118.749 198.414 118.616 197.87 118.616C197.326 118.616 196.83 118.744 196.382 119C195.934 119.256 195.577 119.629 195.31 120.12C195.044 120.61 194.91 121.186 194.91 121.848C194.91 122.52 195.044 123.106 195.31 123.608C195.577 124.098 195.934 124.477 196.382 124.744C196.83 125 197.326 125.128 197.87 125.128C198.414 125.128 198.91 125 199.358 124.744C199.817 124.477 200.18 124.098 200.446 123.608C200.713 123.106 200.846 122.525 200.846 121.864ZM205.531 116.072C205.254 116.072 205.019 115.976 204.827 115.784C204.635 115.592 204.539 115.357 204.539 115.08C204.539 114.802 204.635 114.568 204.827 114.376C205.019 114.184 205.254 114.088 205.531 114.088C205.798 114.088 206.022 114.184 206.203 114.376C206.395 114.568 206.491 114.802 206.491 115.08C206.491 115.357 206.395 115.592 206.203 115.784C206.022 115.976 205.798 116.072 205.531 116.072ZM206.235 117.496V126.264H204.779V117.496H206.235ZM211.98 124.92L214.7 117.496H216.252L212.812 126.264H211.116L207.676 117.496H209.244L211.98 124.92ZM218.437 116.072C218.16 116.072 217.925 115.976 217.733 115.784C217.541 115.592 217.445 115.357 217.445 115.08C217.445 114.802 217.541 114.568 217.733 114.376C217.925 114.184 218.16 114.088 218.437 114.088C218.704 114.088 218.928 114.184 219.109 114.376C219.301 114.568 219.397 114.802 219.397 115.08C219.397 115.357 219.301 115.592 219.109 115.784C218.928 115.976 218.704 116.072 218.437 116.072ZM219.141 117.496V126.264H217.685V117.496H219.141ZM221.079 121.848C221.079 120.952 221.26 120.168 221.623 119.496C221.985 118.813 222.481 118.285 223.111 117.912C223.751 117.538 224.465 117.352 225.255 117.352C225.937 117.352 226.572 117.512 227.159 117.832C227.745 118.141 228.193 118.552 228.503 119.064V114.424H229.975V126.264H228.503V124.616C228.215 125.138 227.788 125.57 227.223 125.912C226.657 126.242 225.996 126.408 225.239 126.408C224.46 126.408 223.751 126.216 223.111 125.832C222.481 125.448 221.985 124.909 221.623 124.216C221.26 123.522 221.079 122.733 221.079 121.848ZM228.503 121.864C228.503 121.202 228.369 120.626 228.103 120.136C227.836 119.645 227.473 119.272 227.015 119.016C226.567 118.749 226.071 118.616 225.527 118.616C224.983 118.616 224.487 118.744 224.039 119C223.591 119.256 223.233 119.629 222.967 120.12C222.7 120.61 222.567 121.186 222.567 121.848C222.567 122.52 222.7 123.106 222.967 123.608C223.233 124.098 223.591 124.477 224.039 124.744C224.487 125 224.983 125.128 225.527 125.128C226.071 125.128 226.567 125 227.015 124.744C227.473 124.477 227.836 124.098 228.103 123.608C228.369 123.106 228.503 122.525 228.503 121.864ZM240.435 121.544C240.435 121.821 240.419 122.114 240.387 122.424H233.379C233.432 123.288 233.726 123.965 234.259 124.456C234.803 124.936 235.459 125.176 236.227 125.176C236.856 125.176 237.379 125.032 237.795 124.744C238.222 124.445 238.52 124.05 238.691 123.56H240.259C240.024 124.402 239.555 125.09 238.851 125.624C238.147 126.146 237.272 126.408 236.227 126.408C235.395 126.408 234.648 126.221 233.987 125.848C233.336 125.474 232.824 124.946 232.451 124.264C232.078 123.57 231.891 122.77 231.891 121.864C231.891 120.957 232.072 120.162 232.435 119.48C232.798 118.797 233.304 118.274 233.955 117.912C234.616 117.538 235.374 117.352 236.227 117.352C237.059 117.352 237.795 117.533 238.435 117.896C239.075 118.258 239.566 118.76 239.907 119.4C240.259 120.029 240.435 120.744 240.435 121.544ZM238.931 121.24C238.931 120.685 238.808 120.21 238.563 119.816C238.318 119.41 237.982 119.106 237.555 118.904C237.139 118.69 236.675 118.584 236.163 118.584C235.427 118.584 234.798 118.818 234.275 119.288C233.763 119.757 233.47 120.408 233.395 121.24H238.931ZM241.813 121.848C241.813 120.952 241.994 120.168 242.357 119.496C242.72 118.813 243.216 118.285 243.845 117.912C244.485 117.538 245.2 117.352 245.989 117.352C246.672 117.352 247.306 117.512 247.893 117.832C248.48 118.141 248.928 118.552 249.237 119.064V114.424H250.709V126.264H249.237V124.616C248.949 125.138 248.522 125.57 247.957 125.912C247.392 126.242 246.73 126.408 245.973 126.408C245.194 126.408 244.485 126.216 243.845 125.832C243.216 125.448 242.72 124.909 242.357 124.216C241.994 123.522 241.813 122.733 241.813 121.848ZM249.237 121.864C249.237 121.202 249.104 120.626 248.837 120.136C248.57 119.645 248.208 119.272 247.749 119.016C247.301 118.749 246.805 118.616 246.261 118.616C245.717 118.616 245.221 118.744 244.773 119C244.325 119.256 243.968 119.629 243.701 120.12C243.434 120.61 243.301 121.186 243.301 121.848C243.301 122.52 243.434 123.106 243.701 123.608C243.968 124.098 244.325 124.477 244.773 124.744C245.221 125 245.717 125.128 246.261 125.128C246.805 125.128 247.301 125 247.749 124.744C248.208 124.477 248.57 124.098 248.837 123.608C249.104 123.106 249.237 122.525 249.237 121.864ZM256.891 121.848C256.891 120.952 257.072 120.168 257.435 119.496C257.798 118.813 258.294 118.285 258.923 117.912C259.563 117.538 260.272 117.352 261.051 117.352C261.819 117.352 262.486 117.517 263.051 117.848C263.616 118.178 264.038 118.594 264.315 119.096V117.496H265.787V126.264H264.315V124.632C264.027 125.144 263.595 125.57 263.019 125.912C262.454 126.242 261.792 126.408 261.035 126.408C260.256 126.408 259.552 126.216 258.923 125.832C258.294 125.448 257.798 124.909 257.435 124.216C257.072 123.522 256.891 122.733 256.891 121.848ZM264.315 121.864C264.315 121.202 264.182 120.626 263.915 120.136C263.648 119.645 263.286 119.272 262.827 119.016C262.379 118.749 261.883 118.616 261.339 118.616C260.795 118.616 260.299 118.744 259.851 119C259.403 119.256 259.046 119.629 258.779 120.12C258.512 120.61 258.379 121.186 258.379 121.848C258.379 122.52 258.512 123.106 258.779 123.608C259.046 124.098 259.403 124.477 259.851 124.744C260.299 125 260.795 125.128 261.339 125.128C261.883 125.128 262.379 125 262.827 124.744C263.286 124.477 263.648 124.098 263.915 123.608C264.182 123.106 264.315 122.525 264.315 121.864ZM270.024 118.696V123.864C270.024 124.29 270.114 124.594 270.296 124.776C270.477 124.946 270.792 125.032 271.24 125.032H272.312V126.264H271C270.189 126.264 269.581 126.077 269.176 125.704C268.77 125.33 268.568 124.717 268.568 123.864V118.696H267.432V117.496H268.568V115.288H270.024V117.496H272.312V118.696H270.024ZM275.852 118.696V123.864C275.852 124.29 275.942 124.594 276.124 124.776C276.305 124.946 276.62 125.032 277.068 125.032H278.14V126.264H276.828C276.017 126.264 275.409 126.077 275.004 125.704C274.598 125.33 274.396 124.717 274.396 123.864V118.696H273.26V117.496H274.396V115.288H275.852V117.496H278.14V118.696H275.852ZM287.904 121.544C287.904 121.821 287.888 122.114 287.856 122.424H280.848C280.901 123.288 281.195 123.965 281.728 124.456C282.272 124.936 282.928 125.176 283.696 125.176C284.325 125.176 284.848 125.032 285.264 124.744C285.691 124.445 285.989 124.05 286.16 123.56H287.728C287.493 124.402 287.024 125.09 286.32 125.624C285.616 126.146 284.741 126.408 283.696 126.408C282.864 126.408 282.117 126.221 281.456 125.848C280.805 125.474 280.293 124.946 279.92 124.264C279.547 123.57 279.36 122.77 279.36 121.864C279.36 120.957 279.541 120.162 279.904 119.48C280.267 118.797 280.773 118.274 281.424 117.912C282.085 117.538 282.843 117.352 283.696 117.352C284.528 117.352 285.264 117.533 285.904 117.896C286.544 118.258 287.035 118.76 287.376 119.4C287.728 120.029 287.904 120.744 287.904 121.544ZM286.4 121.24C286.4 120.685 286.277 120.21 286.032 119.816C285.787 119.41 285.451 119.106 285.024 118.904C284.608 118.69 284.144 118.584 283.632 118.584C282.896 118.584 282.267 118.818 281.744 119.288C281.232 119.757 280.939 120.408 280.864 121.24H286.4ZM294.098 117.336C295.164 117.336 296.028 117.661 296.69 118.312C297.351 118.952 297.682 119.88 297.682 121.096V126.264H296.242V121.304C296.242 120.429 296.023 119.762 295.586 119.304C295.148 118.834 294.551 118.6 293.794 118.6C293.026 118.6 292.412 118.84 291.954 119.32C291.506 119.8 291.282 120.498 291.282 121.416V126.264H289.826V117.496H291.282V118.744C291.57 118.296 291.959 117.949 292.45 117.704C292.951 117.458 293.5 117.336 294.098 117.336ZM301.836 118.696V123.864C301.836 124.29 301.927 124.594 302.108 124.776C302.289 124.946 302.604 125.032 303.052 125.032H304.124V126.264H302.812C302.001 126.264 301.393 126.077 300.988 125.704C300.583 125.33 300.38 124.717 300.38 123.864V118.696H299.244V117.496H300.38V115.288H301.836V117.496H304.124V118.696H301.836ZM306.64 116.072C306.363 116.072 306.128 115.976 305.936 115.784C305.744 115.592 305.648 115.357 305.648 115.08C305.648 114.802 305.744 114.568 305.936 114.376C306.128 114.184 306.363 114.088 306.64 114.088C306.907 114.088 307.131 114.184 307.312 114.376C307.504 114.568 307.6 114.802 307.6 115.08C307.6 115.357 307.504 115.592 307.312 115.784C307.131 115.976 306.907 116.072 306.64 116.072ZM307.344 117.496V126.264H305.888V117.496H307.344ZM313.65 126.408C312.828 126.408 312.082 126.221 311.41 125.848C310.748 125.474 310.226 124.946 309.842 124.264C309.468 123.57 309.282 122.77 309.282 121.864C309.282 120.968 309.474 120.178 309.858 119.496C310.252 118.802 310.786 118.274 311.458 117.912C312.13 117.538 312.882 117.352 313.714 117.352C314.546 117.352 315.298 117.538 315.97 117.912C316.642 118.274 317.17 118.797 317.554 119.48C317.948 120.162 318.146 120.957 318.146 121.864C318.146 122.77 317.943 123.57 317.538 124.264C317.143 124.946 316.604 125.474 315.922 125.848C315.239 126.221 314.482 126.408 313.65 126.408ZM313.65 125.128C314.172 125.128 314.663 125.005 315.122 124.76C315.58 124.514 315.948 124.146 316.226 123.656C316.514 123.165 316.658 122.568 316.658 121.864C316.658 121.16 316.519 120.562 316.242 120.072C315.964 119.581 315.602 119.218 315.154 118.984C314.706 118.738 314.22 118.616 313.698 118.616C313.164 118.616 312.674 118.738 312.226 118.984C311.788 119.218 311.436 119.581 311.17 120.072C310.903 120.562 310.77 121.16 310.77 121.864C310.77 122.578 310.898 123.181 311.154 123.672C311.42 124.162 311.772 124.53 312.21 124.776C312.647 125.01 313.127 125.128 313.65 125.128ZM324.332 117.336C325.399 117.336 326.263 117.661 326.924 118.312C327.585 118.952 327.916 119.88 327.916 121.096V126.264H326.476V121.304C326.476 120.429 326.257 119.762 325.82 119.304C325.383 118.834 324.785 118.6 324.028 118.6C323.26 118.6 322.647 118.84 322.188 119.32C321.74 119.8 321.516 120.498 321.516 121.416V126.264H320.06V117.496H321.516V118.744C321.804 118.296 322.193 117.949 322.684 117.704C323.185 117.458 323.735 117.336 324.332 117.336ZM336.336 118.696V123.864C336.336 124.29 336.427 124.594 336.608 124.776C336.789 124.946 337.104 125.032 337.552 125.032H338.624V126.264H337.312C336.501 126.264 335.893 126.077 335.488 125.704C335.083 125.33 334.88 124.717 334.88 123.864V118.696H333.744V117.496H334.88V115.288H336.336V117.496H338.624V118.696H336.336ZM344.212 126.408C343.391 126.408 342.644 126.221 341.972 125.848C341.311 125.474 340.788 124.946 340.404 124.264C340.031 123.57 339.844 122.77 339.844 121.864C339.844 120.968 340.036 120.178 340.42 119.496C340.815 118.802 341.348 118.274 342.02 117.912C342.692 117.538 343.444 117.352 344.276 117.352C345.108 117.352 345.86 117.538 346.532 117.912C347.204 118.274 347.732 118.797 348.116 119.48C348.511 120.162 348.708 120.957 348.708 121.864C348.708 122.77 348.506 123.57 348.1 124.264C347.706 124.946 347.167 125.474 346.484 125.848C345.802 126.221 345.044 126.408 344.212 126.408ZM344.212 125.128C344.735 125.128 345.226 125.005 345.684 124.76C346.143 124.514 346.511 124.146 346.788 123.656C347.076 123.165 347.22 122.568 347.22 121.864C347.22 121.16 347.082 120.562 346.804 120.072C346.527 119.581 346.164 119.218 345.716 118.984C345.268 118.738 344.783 118.616 344.26 118.616C343.727 118.616 343.236 118.738 342.788 118.984C342.351 119.218 341.999 119.581 341.732 120.072C341.466 120.562 341.332 121.16 341.332 121.864C341.332 122.578 341.46 123.181 341.716 123.672C341.983 124.162 342.335 124.53 342.772 124.776C343.21 125.01 343.69 125.128 344.212 125.128ZM362.44 117.496L357.16 130.392H355.656L357.384 126.168L353.848 117.496H355.464L358.216 124.6L360.936 117.496H362.44ZM367.728 126.408C366.907 126.408 366.16 126.221 365.488 125.848C364.827 125.474 364.304 124.946 363.92 124.264C363.547 123.57 363.36 122.77 363.36 121.864C363.36 120.968 363.552 120.178 363.936 119.496C364.331 118.802 364.864 118.274 365.536 117.912C366.208 117.538 366.96 117.352 367.792 117.352C368.624 117.352 369.376 117.538 370.048 117.912C370.72 118.274 371.248 118.797 371.632 119.48C372.027 120.162 372.224 120.957 372.224 121.864C372.224 122.77 372.021 123.57 371.616 124.264C371.221 124.946 370.683 125.474 370 125.848C369.317 126.221 368.56 126.408 367.728 126.408ZM367.728 125.128C368.251 125.128 368.741 125.005 369.2 124.76C369.659 124.514 370.027 124.146 370.304 123.656C370.592 123.165 370.736 122.568 370.736 121.864C370.736 121.16 370.597 120.562 370.32 120.072C370.043 119.581 369.68 119.218 369.232 118.984C368.784 118.738 368.299 118.616 367.776 118.616C367.243 118.616 366.752 118.738 366.304 118.984C365.867 119.218 365.515 119.581 365.248 120.072C364.981 120.562 364.848 121.16 364.848 121.864C364.848 122.578 364.976 123.181 365.232 123.672C365.499 124.162 365.851 124.53 366.288 124.776C366.725 125.01 367.205 125.128 367.728 125.128ZM381.914 117.496V126.264H380.458V124.968C380.181 125.416 379.792 125.768 379.29 126.024C378.8 126.269 378.256 126.392 377.658 126.392C376.976 126.392 376.362 126.253 375.818 125.976C375.274 125.688 374.842 125.261 374.522 124.696C374.213 124.13 374.058 123.442 374.058 122.632V117.496H375.498V122.44C375.498 123.304 375.717 123.97 376.154 124.44C376.592 124.898 377.189 125.128 377.946 125.128C378.725 125.128 379.338 124.888 379.786 124.408C380.234 123.928 380.458 123.229 380.458 122.312V117.496H381.914ZM385.829 118.92C386.085 118.418 386.447 118.029 386.917 117.752C387.397 117.474 387.978 117.336 388.661 117.336V118.84H388.277C386.645 118.84 385.829 119.725 385.829 121.496V126.264H384.373V117.496H385.829V118.92ZM398.175 118.696H396.335V126.264H394.879V118.696H393.743V117.496H394.879V116.872C394.879 115.89 395.13 115.176 395.631 114.728C396.143 114.269 396.959 114.04 398.079 114.04V115.256C397.439 115.256 396.986 115.384 396.719 115.64C396.463 115.885 396.335 116.296 396.335 116.872V117.496H398.175V118.696ZM401.329 118.92C401.585 118.418 401.947 118.029 402.417 117.752C402.897 117.474 403.478 117.336 404.161 117.336V118.84H403.777C402.145 118.84 401.329 119.725 401.329 121.496V126.264H399.873V117.496H401.329V118.92ZM406.593 116.072C406.316 116.072 406.081 115.976 405.889 115.784C405.697 115.592 405.601 115.357 405.601 115.08C405.601 114.802 405.697 114.568 405.889 114.376C406.081 114.184 406.316 114.088 406.593 114.088C406.86 114.088 407.084 114.184 407.265 114.376C407.457 114.568 407.553 114.802 407.553 115.08C407.553 115.357 407.457 115.592 407.265 115.784C407.084 115.976 406.86 116.072 406.593 116.072ZM407.297 117.496V126.264H405.841V117.496H407.297ZM417.779 121.544C417.779 121.821 417.763 122.114 417.731 122.424H410.723C410.776 123.288 411.07 123.965 411.603 124.456C412.147 124.936 412.803 125.176 413.571 125.176C414.2 125.176 414.723 125.032 415.139 124.744C415.566 124.445 415.864 124.05 416.035 123.56H417.603C417.368 124.402 416.899 125.09 416.195 125.624C415.491 126.146 414.616 126.408 413.571 126.408C412.739 126.408 411.992 126.221 411.331 125.848C410.68 125.474 410.168 124.946 409.795 124.264C409.422 123.57 409.235 122.77 409.235 121.864C409.235 120.957 409.416 120.162 409.779 119.48C410.142 118.797 410.648 118.274 411.299 117.912C411.96 117.538 412.718 117.352 413.571 117.352C414.403 117.352 415.139 117.533 415.779 117.896C416.419 118.258 416.91 118.76 417.251 119.4C417.603 120.029 417.779 120.744 417.779 121.544ZM416.275 121.24C416.275 120.685 416.152 120.21 415.907 119.816C415.662 119.41 415.326 119.106 414.899 118.904C414.483 118.69 414.019 118.584 413.507 118.584C412.771 118.584 412.142 118.818 411.619 119.288C411.107 119.757 410.814 120.408 410.739 121.24H416.275ZM423.973 117.336C425.039 117.336 425.903 117.661 426.565 118.312C427.226 118.952 427.557 119.88 427.557 121.096V126.264H426.117V121.304C426.117 120.429 425.898 119.762 425.461 119.304C425.023 118.834 424.426 118.6 423.669 118.6C422.901 118.6 422.287 118.84 421.829 119.32C421.381 119.8 421.157 120.498 421.157 121.416V126.264H419.701V117.496H421.157V118.744C421.445 118.296 421.834 117.949 422.325 117.704C422.826 117.458 423.375 117.336 423.973 117.336ZM429.391 121.848C429.391 120.952 429.572 120.168 429.935 119.496C430.298 118.813 430.794 118.285 431.423 117.912C432.063 117.538 432.778 117.352 433.567 117.352C434.25 117.352 434.884 117.512 435.471 117.832C436.058 118.141 436.506 118.552 436.815 119.064V114.424H438.287V126.264H436.815V124.616C436.527 125.138 436.1 125.57 435.535 125.912C434.97 126.242 434.308 126.408 433.551 126.408C432.772 126.408 432.063 126.216 431.423 125.832C430.794 125.448 430.298 124.909 429.935 124.216C429.572 123.522 429.391 122.733 429.391 121.848ZM436.815 121.864C436.815 121.202 436.682 120.626 436.415 120.136C436.148 119.645 435.786 119.272 435.327 119.016C434.879 118.749 434.383 118.616 433.839 118.616C433.295 118.616 432.799 118.744 432.351 119C431.903 119.256 431.546 119.629 431.279 120.12C431.012 120.61 430.879 121.186 430.879 121.848C430.879 122.52 431.012 123.106 431.279 123.608C431.546 124.098 431.903 124.477 432.351 124.744C432.799 125 433.295 125.128 433.839 125.128C434.383 125.128 434.879 125 435.327 124.744C435.786 124.477 436.148 124.098 436.415 123.608C436.682 123.106 436.815 122.525 436.815 121.864ZM443.852 126.408C443.18 126.408 442.577 126.296 442.044 126.072C441.51 125.837 441.089 125.517 440.78 125.112C440.47 124.696 440.3 124.221 440.268 123.688H441.772C441.814 124.125 442.017 124.482 442.38 124.76C442.753 125.037 443.238 125.176 443.836 125.176C444.39 125.176 444.828 125.053 445.148 124.808C445.468 124.562 445.628 124.253 445.628 123.88C445.628 123.496 445.457 123.213 445.116 123.032C444.774 122.84 444.246 122.653 443.532 122.472C442.881 122.301 442.348 122.13 441.932 121.96C441.526 121.778 441.174 121.517 440.876 121.176C440.588 120.824 440.444 120.365 440.444 119.8C440.444 119.352 440.577 118.941 440.844 118.568C441.11 118.194 441.489 117.901 441.98 117.688C442.47 117.464 443.03 117.352 443.66 117.352C444.63 117.352 445.414 117.597 446.012 118.088C446.609 118.578 446.929 119.25 446.972 120.104H445.516C445.484 119.645 445.297 119.277 444.956 119C444.625 118.722 444.177 118.584 443.612 118.584C443.089 118.584 442.673 118.696 442.364 118.92C442.054 119.144 441.9 119.437 441.9 119.8C441.9 120.088 441.99 120.328 442.172 120.52C442.364 120.701 442.598 120.85 442.876 120.968C443.164 121.074 443.558 121.197 444.06 121.336C444.689 121.506 445.201 121.677 445.596 121.848C445.99 122.008 446.326 122.253 446.604 122.584C446.892 122.914 447.041 123.346 447.052 123.88C447.052 124.36 446.918 124.792 446.652 125.176C446.385 125.56 446.006 125.864 445.516 126.088C445.036 126.301 444.481 126.408 443.852 126.408ZM450.611 124.248L448.819 128.552H447.843L449.011 124.248H450.611ZM468.225 117.496L465.489 126.264H463.985L461.873 119.304L459.761 126.264H458.257L455.505 117.496H456.993L459.009 124.856L461.185 117.496H462.673L464.801 124.872L466.785 117.496H468.225ZM474.022 117.336C474.683 117.336 475.28 117.48 475.814 117.768C476.347 118.045 476.763 118.466 477.062 119.032C477.371 119.597 477.526 120.285 477.526 121.096V126.264H476.086V121.304C476.086 120.429 475.867 119.762 475.43 119.304C474.992 118.834 474.395 118.6 473.638 118.6C472.87 118.6 472.256 118.84 471.798 119.32C471.35 119.8 471.126 120.498 471.126 121.416V126.264H469.67V114.424H471.126V118.744C471.414 118.296 471.808 117.949 472.31 117.704C472.822 117.458 473.392 117.336 474.022 117.336ZM480.656 116.072C480.379 116.072 480.144 115.976 479.952 115.784C479.76 115.592 479.664 115.357 479.664 115.08C479.664 114.802 479.76 114.568 479.952 114.376C480.144 114.184 480.379 114.088 480.656 114.088C480.923 114.088 481.147 114.184 481.328 114.376C481.52 114.568 481.616 114.802 481.616 115.08C481.616 115.357 481.52 115.592 481.328 115.784C481.147 115.976 480.923 116.072 480.656 116.072ZM481.36 117.496V126.264H479.904V117.496H481.36ZM485.297 114.424V126.264H483.841V114.424H485.297ZM495.779 121.544C495.779 121.821 495.763 122.114 495.731 122.424H488.723C488.776 123.288 489.07 123.965 489.603 124.456C490.147 124.936 490.803 125.176 491.571 125.176C492.2 125.176 492.723 125.032 493.139 124.744C493.566 124.445 493.864 124.05 494.035 123.56H495.603C495.368 124.402 494.899 125.09 494.195 125.624C493.491 126.146 492.616 126.408 491.571 126.408C490.739 126.408 489.992 126.221 489.331 125.848C488.68 125.474 488.168 124.946 487.795 124.264C487.422 123.57 487.235 122.77 487.235 121.864C487.235 120.957 487.416 120.162 487.779 119.48C488.142 118.797 488.648 118.274 489.299 117.912C489.96 117.538 490.718 117.352 491.571 117.352C492.403 117.352 493.139 117.533 493.779 117.896C494.419 118.258 494.91 118.76 495.251 119.4C495.603 120.029 495.779 120.744 495.779 121.544ZM494.275 121.24C494.275 120.685 494.152 120.21 493.907 119.816C493.662 119.41 493.326 119.106 492.899 118.904C492.483 118.69 492.019 118.584 491.507 118.584C490.771 118.584 490.142 118.818 489.619 119.288C489.107 119.757 488.814 120.408 488.739 121.24H494.275ZM513.646 117.496L510.91 126.264H509.406L507.294 119.304L505.182 126.264H503.678L500.926 117.496H502.414L504.43 124.856L506.606 117.496H508.094L510.222 124.872L512.206 117.496H513.646ZM523.091 121.544C523.091 121.821 523.075 122.114 523.043 122.424H516.035C516.089 123.288 516.382 123.965 516.915 124.456C517.459 124.936 518.115 125.176 518.883 125.176C519.513 125.176 520.035 125.032 520.451 124.744C520.878 124.445 521.177 124.05 521.347 123.56H522.915C522.681 124.402 522.211 125.09 521.507 125.624C520.803 126.146 519.929 126.408 518.883 126.408C518.051 126.408 517.305 126.221 516.643 125.848C515.993 125.474 515.481 124.946 515.107 124.264C514.734 123.57 514.547 122.77 514.547 121.864C514.547 120.957 514.729 120.162 515.091 119.48C515.454 118.797 515.961 118.274 516.611 117.912C517.273 117.538 518.03 117.352 518.883 117.352C519.715 117.352 520.451 117.533 521.091 117.896C521.731 118.258 522.222 118.76 522.563 119.4C522.915 120.029 523.091 120.744 523.091 121.544ZM521.587 121.24C521.587 120.685 521.465 120.21 521.219 119.816C520.974 119.41 520.638 119.106 520.211 118.904C519.795 118.69 519.331 118.584 518.819 118.584C518.083 118.584 517.454 118.818 516.931 119.288C516.419 119.757 516.126 120.408 516.051 121.24H521.587ZM532.895 117.352C533.652 117.352 534.314 117.517 534.879 117.848C535.455 118.178 535.882 118.594 536.159 119.096V117.496H537.631V126.456C537.631 127.256 537.46 127.965 537.119 128.584C536.778 129.213 536.287 129.704 535.647 130.056C535.018 130.408 534.282 130.584 533.439 130.584C532.287 130.584 531.327 130.312 530.559 129.768C529.791 129.224 529.338 128.482 529.199 127.544H530.639C530.799 128.077 531.13 128.504 531.631 128.824C532.132 129.154 532.735 129.32 533.439 129.32C534.239 129.32 534.89 129.069 535.391 128.568C535.903 128.066 536.159 127.362 536.159 126.456V124.616C535.871 125.128 535.444 125.554 534.879 125.896C534.314 126.237 533.652 126.408 532.895 126.408C532.116 126.408 531.407 126.216 530.767 125.832C530.138 125.448 529.642 124.909 529.279 124.216C528.916 123.522 528.735 122.733 528.735 121.848C528.735 120.952 528.916 120.168 529.279 119.496C529.642 118.813 530.138 118.285 530.767 117.912C531.407 117.538 532.116 117.352 532.895 117.352ZM536.159 121.864C536.159 121.202 536.026 120.626 535.759 120.136C535.492 119.645 535.13 119.272 534.671 119.016C534.223 118.749 533.727 118.616 533.183 118.616C532.639 118.616 532.143 118.744 531.695 119C531.247 119.256 530.89 119.629 530.623 120.12C530.356 120.61 530.223 121.186 530.223 121.848C530.223 122.52 530.356 123.106 530.623 123.608C530.89 124.098 531.247 124.477 531.695 124.744C532.143 125 532.639 125.128 533.183 125.128C533.727 125.128 534.223 125 534.671 124.744C535.13 124.477 535.492 124.098 535.759 123.608C536.026 123.106 536.159 122.525 536.159 121.864ZM540.843 116.072C540.566 116.072 540.331 115.976 540.139 115.784C539.947 115.592 539.851 115.357 539.851 115.08C539.851 114.802 539.947 114.568 540.139 114.376C540.331 114.184 540.566 114.088 540.843 114.088C541.11 114.088 541.334 114.184 541.515 114.376C541.707 114.568 541.803 114.802 541.803 115.08C541.803 115.357 541.707 115.592 541.515 115.784C541.334 115.976 541.11 116.072 540.843 116.072ZM541.547 117.496V126.264H540.091V117.496H541.547ZM547.293 124.92L550.013 117.496H551.565L548.125 126.264H546.429L542.989 117.496H544.557L547.293 124.92ZM560.998 121.544C560.998 121.821 560.982 122.114 560.95 122.424H553.942C553.995 123.288 554.288 123.965 554.822 124.456C555.366 124.936 556.022 125.176 556.79 125.176C557.419 125.176 557.942 125.032 558.358 124.744C558.784 124.445 559.083 124.05 559.254 123.56H560.822C560.587 124.402 560.118 125.09 559.414 125.624C558.71 126.146 557.835 126.408 556.79 126.408C555.958 126.408 555.211 126.221 554.55 125.848C553.899 125.474 553.387 124.946 553.014 124.264C552.64 123.57 552.454 122.77 552.454 121.864C552.454 120.957 552.635 120.162 552.998 119.48C553.36 118.797 553.867 118.274 554.518 117.912C555.179 117.538 555.936 117.352 556.79 117.352C557.622 117.352 558.358 117.533 558.998 117.896C559.638 118.258 560.128 118.76 560.47 119.4C560.822 120.029 560.998 120.744 560.998 121.544ZM559.494 121.24C559.494 120.685 559.371 120.21 559.126 119.816C558.88 119.41 558.544 119.106 558.118 118.904C557.702 118.69 557.238 118.584 556.726 118.584C555.99 118.584 555.36 118.818 554.838 119.288C554.326 119.757 554.032 120.408 553.958 121.24H559.494ZM571.009 126.408C570.188 126.408 569.441 126.221 568.769 125.848C568.108 125.474 567.585 124.946 567.201 124.264C566.828 123.57 566.641 122.77 566.641 121.864C566.641 120.968 566.833 120.178 567.217 119.496C567.612 118.802 568.145 118.274 568.817 117.912C569.489 117.538 570.241 117.352 571.073 117.352C571.905 117.352 572.657 117.538 573.329 117.912C574.001 118.274 574.529 118.797 574.913 119.48C575.308 120.162 575.505 120.957 575.505 121.864C575.505 122.77 575.302 123.57 574.897 124.264C574.502 124.946 573.964 125.474 573.281 125.848C572.598 126.221 571.841 126.408 571.009 126.408ZM571.009 125.128C571.532 125.128 572.022 125.005 572.481 124.76C572.94 124.514 573.308 124.146 573.585 123.656C573.873 123.165 574.017 122.568 574.017 121.864C574.017 121.16 573.878 120.562 573.601 120.072C573.324 119.581 572.961 119.218 572.513 118.984C572.065 118.738 571.58 118.616 571.057 118.616C570.524 118.616 570.033 118.738 569.585 118.984C569.148 119.218 568.796 119.581 568.529 120.072C568.262 120.562 568.129 121.16 568.129 121.864C568.129 122.578 568.257 123.181 568.513 123.672C568.78 124.162 569.132 124.53 569.569 124.776C570.006 125.01 570.486 125.128 571.009 125.128ZM585.196 117.496V126.264H583.74V124.968C583.462 125.416 583.073 125.768 582.572 126.024C582.081 126.269 581.537 126.392 580.94 126.392C580.257 126.392 579.644 126.253 579.1 125.976C578.556 125.688 578.124 125.261 577.804 124.696C577.494 124.13 577.34 123.442 577.34 122.632V117.496H578.78V122.44C578.78 123.304 578.998 123.97 579.436 124.44C579.873 124.898 580.47 125.128 581.228 125.128C582.006 125.128 582.62 124.888 583.068 124.408C583.516 123.928 583.74 123.229 583.74 122.312V117.496H585.196ZM589.11 118.92C589.366 118.418 589.729 118.029 590.198 117.752C590.678 117.474 591.259 117.336 591.942 117.336V118.84H591.558C589.926 118.84 589.11 119.725 589.11 121.496V126.264H587.654V117.496H589.11V118.92ZM597.344 121.848C597.344 120.952 597.526 120.168 597.888 119.496C598.251 118.813 598.747 118.285 599.376 117.912C600.016 117.538 600.726 117.352 601.504 117.352C602.272 117.352 602.939 117.517 603.504 117.848C604.07 118.178 604.491 118.594 604.768 119.096V117.496H606.24V126.264H604.768V124.632C604.48 125.144 604.048 125.57 603.472 125.912C602.907 126.242 602.246 126.408 601.488 126.408C600.71 126.408 600.006 126.216 599.376 125.832C598.747 125.448 598.251 124.909 597.888 124.216C597.526 123.522 597.344 122.733 597.344 121.848ZM604.768 121.864C604.768 121.202 604.635 120.626 604.368 120.136C604.102 119.645 603.739 119.272 603.28 119.016C602.832 118.749 602.336 118.616 601.792 118.616C601.248 118.616 600.752 118.744 600.304 119C599.856 119.256 599.499 119.629 599.232 120.12C598.966 120.61 598.832 121.186 598.832 121.848C598.832 122.52 598.966 123.106 599.232 123.608C599.499 124.098 599.856 124.477 600.304 124.744C600.752 125 601.248 125.128 601.792 125.128C602.336 125.128 602.832 125 603.28 124.744C603.739 124.477 604.102 124.098 604.368 123.608C604.635 123.106 604.768 122.525 604.768 121.864ZM610.477 118.696V123.864C610.477 124.29 610.567 124.594 610.749 124.776C610.93 124.946 611.245 125.032 611.693 125.032H612.765V126.264H611.453C610.642 126.264 610.034 126.077 609.629 125.704C609.223 125.33 609.021 124.717 609.021 123.864V118.696H607.885V117.496H609.021V115.288H610.477V117.496H612.765V118.696H610.477ZM616.305 118.696V123.864C616.305 124.29 616.396 124.594 616.577 124.776C616.758 124.946 617.073 125.032 617.521 125.032H618.593V126.264H617.281C616.47 126.264 615.862 126.077 615.457 125.704C615.052 125.33 614.849 124.717 614.849 123.864V118.696H613.713V117.496H614.849V115.288H616.305V117.496H618.593V118.696H616.305ZM628.357 121.544C628.357 121.821 628.341 122.114 628.309 122.424H621.301C621.354 123.288 621.648 123.965 622.181 124.456C622.725 124.936 623.381 125.176 624.149 125.176C624.778 125.176 625.301 125.032 625.717 124.744C626.144 124.445 626.442 124.05 626.613 123.56H628.181C627.946 124.402 627.477 125.09 626.773 125.624C626.069 126.146 625.194 126.408 624.149 126.408C623.317 126.408 622.57 126.221 621.909 125.848C621.258 125.474 620.746 124.946 620.373 124.264C620 123.57 619.813 122.77 619.813 121.864C619.813 120.957 619.994 120.162 620.357 119.48C620.72 118.797 621.226 118.274 621.877 117.912C622.538 117.538 623.296 117.352 624.149 117.352C624.981 117.352 625.717 117.533 626.357 117.896C626.997 118.258 627.488 118.76 627.829 119.4C628.181 120.029 628.357 120.744 628.357 121.544ZM626.853 121.24C626.853 120.685 626.73 120.21 626.485 119.816C626.24 119.41 625.904 119.106 625.477 118.904C625.061 118.69 624.597 118.584 624.085 118.584C623.349 118.584 622.72 118.818 622.197 119.288C621.685 119.757 621.392 120.408 621.317 121.24H626.853ZM634.551 117.336C635.618 117.336 636.482 117.661 637.143 118.312C637.804 118.952 638.135 119.88 638.135 121.096V126.264H636.695V121.304C636.695 120.429 636.476 119.762 636.039 119.304C635.602 118.834 635.004 118.6 634.247 118.6C633.479 118.6 632.866 118.84 632.407 119.32C631.959 119.8 631.735 120.498 631.735 121.416V126.264H630.279V117.496H631.735V118.744C632.023 118.296 632.412 117.949 632.903 117.704C633.404 117.458 633.954 117.336 634.551 117.336ZM642.289 118.696V123.864C642.289 124.29 642.38 124.594 642.561 124.776C642.743 124.946 643.057 125.032 643.505 125.032H644.577V126.264H643.265C642.455 126.264 641.847 126.077 641.441 125.704C641.036 125.33 640.833 124.717 640.833 123.864V118.696H639.697V117.496H640.833V115.288H642.289V117.496H644.577V118.696H642.289ZM647.093 116.072C646.816 116.072 646.581 115.976 646.389 115.784C646.197 115.592 646.101 115.357 646.101 115.08C646.101 114.802 646.197 114.568 646.389 114.376C646.581 114.184 646.816 114.088 647.093 114.088C647.36 114.088 647.584 114.184 647.765 114.376C647.957 114.568 648.053 114.802 648.053 115.08C648.053 115.357 647.957 115.592 647.765 115.784C647.584 115.976 647.36 116.072 647.093 116.072ZM647.797 117.496V126.264H646.341V117.496H647.797ZM654.103 126.408C653.282 126.408 652.535 126.221 651.863 125.848C651.202 125.474 650.679 124.946 650.295 124.264C649.922 123.57 649.735 122.77 649.735 121.864C649.735 120.968 649.927 120.178 650.311 119.496C650.706 118.802 651.239 118.274 651.911 117.912C652.583 117.538 653.335 117.352 654.167 117.352C654.999 117.352 655.751 117.538 656.423 117.912C657.095 118.274 657.623 118.797 658.007 119.48C658.402 120.162 658.599 120.957 658.599 121.864C658.599 122.77 658.396 123.57 657.991 124.264C657.596 124.946 657.058 125.474 656.375 125.848C655.692 126.221 654.935 126.408 654.103 126.408ZM654.103 125.128C654.626 125.128 655.116 125.005 655.575 124.76C656.034 124.514 656.402 124.146 656.679 123.656C656.967 123.165 657.111 122.568 657.111 121.864C657.111 121.16 656.972 120.562 656.695 120.072C656.418 119.581 656.055 119.218 655.607 118.984C655.159 118.738 654.674 118.616 654.151 118.616C653.618 118.616 653.127 118.738 652.679 118.984C652.242 119.218 651.89 119.581 651.623 120.072C651.356 120.562 651.223 121.16 651.223 121.864C651.223 122.578 651.351 123.181 651.607 123.672C651.874 124.162 652.226 124.53 652.663 124.776C653.1 125.01 653.58 125.128 654.103 125.128ZM664.785 117.336C665.852 117.336 666.716 117.661 667.377 118.312C668.039 118.952 668.369 119.88 668.369 121.096V126.264H666.929V121.304C666.929 120.429 666.711 119.762 666.273 119.304C665.836 118.834 665.239 118.6 664.481 118.6C663.713 118.6 663.1 118.84 662.641 119.32C662.193 119.8 661.969 120.498 661.969 121.416V126.264H660.513V117.496H661.969V118.744C662.257 118.296 662.647 117.949 663.137 117.704C663.639 117.458 664.188 117.336 664.785 117.336ZM676.789 118.696V123.864C676.789 124.29 676.88 124.594 677.061 124.776C677.243 124.946 677.557 125.032 678.005 125.032H679.077V126.264H677.765C676.955 126.264 676.347 126.077 675.941 125.704C675.536 125.33 675.333 124.717 675.333 123.864V118.696H674.197V117.496H675.333V115.288H676.789V117.496H679.077V118.696H676.789ZM684.665 126.408C683.844 126.408 683.097 126.221 682.425 125.848C681.764 125.474 681.241 124.946 680.857 124.264C680.484 123.57 680.297 122.77 680.297 121.864C680.297 120.968 680.489 120.178 680.873 119.496C681.268 118.802 681.801 118.274 682.473 117.912C683.145 117.538 683.897 117.352 684.729 117.352C685.561 117.352 686.313 117.538 686.985 117.912C687.657 118.274 688.185 118.797 688.569 119.48C688.964 120.162 689.161 120.957 689.161 121.864C689.161 122.77 688.959 123.57 688.553 124.264C688.159 124.946 687.62 125.474 686.937 125.848C686.255 126.221 685.497 126.408 684.665 126.408ZM684.665 125.128C685.188 125.128 685.679 125.005 686.137 124.76C686.596 124.514 686.964 124.146 687.241 123.656C687.529 123.165 687.673 122.568 687.673 121.864C687.673 121.16 687.535 120.562 687.257 120.072C686.98 119.581 686.617 119.218 686.169 118.984C685.721 118.738 685.236 118.616 684.713 118.616C684.18 118.616 683.689 118.738 683.241 118.984C682.804 119.218 682.452 119.581 682.185 120.072C681.919 120.562 681.785 121.16 681.785 121.864C681.785 122.578 681.913 123.181 682.169 123.672C682.436 124.162 682.788 124.53 683.225 124.776C683.663 125.01 684.143 125.128 684.665 125.128ZM694.797 121.848C694.797 120.952 694.979 120.168 695.341 119.496C695.704 118.813 696.2 118.285 696.829 117.912C697.469 117.538 698.184 117.352 698.973 117.352C699.656 117.352 700.291 117.512 700.877 117.832C701.464 118.141 701.912 118.552 702.221 119.064V114.424H703.693V126.264H702.221V124.616C701.933 125.138 701.507 125.57 700.941 125.912C700.376 126.242 699.715 126.408 698.957 126.408C698.179 126.408 697.469 126.216 696.829 125.832C696.2 125.448 695.704 124.909 695.341 124.216C694.979 123.522 694.797 122.733 694.797 121.848ZM702.221 121.864C702.221 121.202 702.088 120.626 701.821 120.136C701.555 119.645 701.192 119.272 700.733 119.016C700.285 118.749 699.789 118.616 699.245 118.616C698.701 118.616 698.205 118.744 697.757 119C697.309 119.256 696.952 119.629 696.685 120.12C696.419 120.61 696.285 121.186 696.285 121.848C696.285 122.52 696.419 123.106 696.685 123.608C696.952 124.098 697.309 124.477 697.757 124.744C698.205 125 698.701 125.128 699.245 125.128C699.789 125.128 700.285 125 700.733 124.744C701.192 124.477 701.555 124.098 701.821 123.608C702.088 123.106 702.221 122.525 702.221 121.864ZM714.154 121.544C714.154 121.821 714.138 122.114 714.106 122.424H707.098C707.151 123.288 707.445 123.965 707.978 124.456C708.522 124.936 709.178 125.176 709.946 125.176C710.575 125.176 711.098 125.032 711.514 124.744C711.941 124.445 712.239 124.05 712.41 123.56H713.978C713.743 124.402 713.274 125.09 712.57 125.624C711.866 126.146 710.991 126.408 709.946 126.408C709.114 126.408 708.367 126.221 707.706 125.848C707.055 125.474 706.543 124.946 706.17 124.264C705.797 123.57 705.61 122.77 705.61 121.864C705.61 120.957 705.791 120.162 706.154 119.48C706.517 118.797 707.023 118.274 707.674 117.912C708.335 117.538 709.093 117.352 709.946 117.352C710.778 117.352 711.514 117.533 712.154 117.896C712.794 118.258 713.285 118.76 713.626 119.4C713.978 120.029 714.154 120.744 714.154 121.544ZM712.65 121.24C712.65 120.685 712.527 120.21 712.282 119.816C712.037 119.41 711.701 119.106 711.274 118.904C710.858 118.69 710.394 118.584 709.882 118.584C709.146 118.584 708.517 118.818 707.994 119.288C707.482 119.757 707.189 120.408 707.114 121.24H712.65ZM717.852 118.696V123.864C717.852 124.29 717.942 124.594 718.124 124.776C718.305 124.946 718.62 125.032 719.068 125.032H720.14V126.264H718.828C718.017 126.264 717.409 126.077 717.004 125.704C716.598 125.33 716.396 124.717 716.396 123.864V118.696H715.26V117.496H716.396V115.288H717.852V117.496H720.14V118.696H717.852ZM721.36 121.848C721.36 120.952 721.541 120.168 721.904 119.496C722.267 118.813 722.763 118.285 723.392 117.912C724.032 117.538 724.741 117.352 725.52 117.352C726.288 117.352 726.955 117.517 727.52 117.848C728.085 118.178 728.507 118.594 728.784 119.096V117.496H730.256V126.264H728.784V124.632C728.496 125.144 728.064 125.57 727.488 125.912C726.923 126.242 726.261 126.408 725.504 126.408C724.725 126.408 724.021 126.216 723.392 125.832C722.763 125.448 722.267 124.909 721.904 124.216C721.541 123.522 721.36 122.733 721.36 121.848ZM728.784 121.864C728.784 121.202 728.651 120.626 728.384 120.136C728.117 119.645 727.755 119.272 727.296 119.016C726.848 118.749 726.352 118.616 725.808 118.616C725.264 118.616 724.768 118.744 724.32 119C723.872 119.256 723.515 119.629 723.248 120.12C722.981 120.61 722.848 121.186 722.848 121.848C722.848 122.52 722.981 123.106 723.248 123.608C723.515 124.098 723.872 124.477 724.32 124.744C724.768 125 725.264 125.128 725.808 125.128C726.352 125.128 726.848 125 727.296 124.744C727.755 124.477 728.117 124.098 728.384 123.608C728.651 123.106 728.784 122.525 728.784 121.864ZM733.468 116.072C733.191 116.072 732.956 115.976 732.764 115.784C732.572 115.592 732.476 115.357 732.476 115.08C732.476 114.802 732.572 114.568 732.764 114.376C732.956 114.184 733.191 114.088 733.468 114.088C733.735 114.088 733.959 114.184 734.14 114.376C734.332 114.568 734.428 114.802 734.428 115.08C734.428 115.357 734.332 115.592 734.14 115.784C733.959 115.976 733.735 116.072 733.468 116.072ZM734.172 117.496V126.264H732.716V117.496H734.172ZM738.11 114.424V126.264H736.654V114.424H738.11ZM743.695 126.408C743.023 126.408 742.421 126.296 741.887 126.072C741.354 125.837 740.933 125.517 740.623 125.112C740.314 124.696 740.143 124.221 740.111 123.688H741.615C741.658 124.125 741.861 124.482 742.223 124.76C742.597 125.037 743.082 125.176 743.679 125.176C744.234 125.176 744.671 125.053 744.991 124.808C745.311 124.562 745.471 124.253 745.471 123.88C745.471 123.496 745.301 123.213 744.959 123.032C744.618 122.84 744.09 122.653 743.375 122.472C742.725 122.301 742.191 122.13 741.775 121.96C741.37 121.778 741.018 121.517 740.719 121.176C740.431 120.824 740.287 120.365 740.287 119.8C740.287 119.352 740.421 118.941 740.687 118.568C740.954 118.194 741.333 117.901 741.823 117.688C742.314 117.464 742.874 117.352 743.503 117.352C744.474 117.352 745.258 117.597 745.855 118.088C746.453 118.578 746.773 119.25 746.815 120.104H745.359C745.327 119.645 745.141 119.277 744.799 119C744.469 118.722 744.021 118.584 743.455 118.584C742.933 118.584 742.517 118.696 742.207 118.92C741.898 119.144 741.743 119.437 741.743 119.8C741.743 120.088 741.834 120.328 742.015 120.52C742.207 120.701 742.442 120.85 742.719 120.968C743.007 121.074 743.402 121.197 743.903 121.336C744.533 121.506 745.045 121.677 745.439 121.848C745.834 122.008 746.17 122.253 746.447 122.584C746.735 122.914 746.885 123.346 746.895 123.88C746.895 124.36 746.762 124.792 746.495 125.176C746.229 125.56 745.85 125.864 745.359 126.088C744.879 126.301 744.325 126.408 743.695 126.408Z" fill="white"/>
<defs>
<filter id="filter0_b_213_103" x="-6.36409" y="-6.2967" width="852.728" height="211.728" filterUnits="userSpaceOnUse" color-interpolation-filters="sRGB">
<feFlood flood-opacity="0" result="BackgroundImageFix"/>
<feGaussianBlur in="BackgroundImageFix" stdDeviation="24.682"/>
<feComposite in2="SourceAlpha" operator="in" result="effect1_backgroundBlur_213_103"/>
<feBlend mode="normal" in="SourceGraphic" in2="effect1_backgroundBlur_213_103" result="shape"/>
</filter>
<filter id="filter1_f_213_103" x="0.769444" y="0.908237" width="778.872" height="197.456" filterUnits="userSpaceOnUse" color-interpolation-filters="sRGB">
<feFlood flood-opacity="0" result="BackgroundImageFix"/>
<feBlend mode="normal" in="SourceGraphic" in2="BackgroundImageFix" result="shape"/>
<feGaussianBlur stdDeviation="21.0435" result="effect1_foregroundBlur_213_103"/>
</filter>
</defs>
</svg>
