<svg width="703" height="24" viewBox="0 0 703 24" fill="none" xmlns="http://www.w3.org/2000/svg">
<path d="M32.3912 1.34578L26.6251 23.4651H20.1027L16.5737 8.90794L12.9187 23.4651H6.39632L0.787725 1.34578H6.55387L9.73628 17.4469L13.6749 1.34578H19.5986L23.3797 17.4469L26.5936 1.34578H32.3912ZM63.7035 1.34578V23.4651H58.3155V14.359H49.9341V23.4651H44.5461V1.34578H49.9341V10.0108H58.3155V1.34578H63.7035ZM90.8153 19.558H82.5599L81.2366 23.4651H75.5965L83.5997 1.34578H89.8385L97.8418 23.4651H92.1387L90.8153 19.558ZM89.4289 15.3988L86.6876 7.30098L83.9778 15.3988H89.4289ZM125.642 1.34578V5.66251H119.782V23.4651H114.394V5.66251H108.533V1.34578H125.642ZM167.698 19.558H159.443L158.12 23.4651H152.48L160.483 1.34578H166.722L174.725 23.4651H169.022L167.698 19.558ZM166.312 15.3988L163.571 7.30098L160.861 15.3988H166.312ZM197.894 23.4651L193.293 15.1152H192.001V23.4651H186.613V1.34578H195.657C197.4 1.34578 198.881 1.65037 200.099 2.25954C201.339 2.86871 202.263 3.70895 202.872 4.78026C203.481 5.83056 203.786 7.00689 203.786 8.30926C203.786 9.77968 203.366 11.0926 202.525 12.2479C201.706 13.4032 200.488 14.2225 198.87 14.7056L203.975 23.4651H197.894ZM192.001 11.3026H195.341C196.329 11.3026 197.064 11.0611 197.547 10.5779C198.051 10.0948 198.303 9.41208 198.303 8.52983C198.303 7.68959 198.051 7.0279 197.547 6.54476C197.064 6.06162 196.329 5.82006 195.341 5.82006H192.001V11.3026ZM222.009 5.66251V10.1368H229.224V14.296H222.009V19.1484H230.17V23.4651H216.621V1.34578H230.17V5.66251H222.009ZM278.219 1.34578L270.562 16.155V23.4651H265.174V16.155L257.517 1.34578H263.63L267.915 10.6094L272.169 1.34578H278.219ZM300.303 23.6857C298.224 23.6857 296.312 23.2025 294.569 22.2362C292.846 21.27 291.47 19.9256 290.441 18.2031C289.433 16.4596 288.929 14.506 288.929 12.3424C288.929 10.1788 289.433 8.23574 290.441 6.51325C291.47 4.79076 292.846 3.44638 294.569 2.4801C296.312 1.51383 298.224 1.03069 300.303 1.03069C302.383 1.03069 304.284 1.51383 306.006 2.4801C307.75 3.44638 309.115 4.79076 310.103 6.51325C311.111 8.23574 311.615 10.1788 311.615 12.3424C311.615 14.506 311.111 16.4596 310.103 18.2031C309.094 19.9256 307.729 21.27 306.006 22.2362C304.284 23.2025 302.383 23.6857 300.303 23.6857ZM300.303 18.7702C302.068 18.7702 303.475 18.1821 304.525 17.0057C305.597 15.8294 306.132 14.275 306.132 12.3424C306.132 10.3889 305.597 8.83441 304.525 7.67908C303.475 6.50275 302.068 5.91458 300.303 5.91458C298.518 5.91458 297.089 6.49225 296.018 7.64758C294.968 8.80291 294.443 10.3679 294.443 12.3424C294.443 14.296 294.968 15.8609 296.018 17.0373C297.089 18.1926 298.518 18.7702 300.303 18.7702ZM329.359 1.34578V14.5796C329.359 15.9029 329.684 16.9217 330.336 17.6359C330.987 18.3501 331.942 18.7072 333.203 18.7072C334.463 18.7072 335.429 18.3501 336.102 17.6359C336.774 16.9217 337.11 15.9029 337.11 14.5796V1.34578H342.498V14.548C342.498 16.5226 342.078 18.1926 341.238 19.558C340.397 20.9234 339.263 21.9527 337.835 22.6459C336.427 23.3391 334.852 23.6857 333.108 23.6857C331.365 23.6857 329.8 23.3496 328.413 22.6774C327.048 21.9842 325.966 20.9549 325.168 19.5895C324.37 18.2031 323.971 16.5226 323.971 14.548V1.34578H329.359ZM370.95 12.3739C370.95 10.1893 371.423 8.24625 372.368 6.54476C373.314 4.82227 374.626 3.48839 376.307 2.54312C378.008 1.57684 379.93 1.09371 382.073 1.09371C384.699 1.09371 386.946 1.7869 388.816 3.1733C390.685 4.5597 391.935 6.45024 392.566 8.84492H386.642C386.201 7.92065 385.571 7.21695 384.751 6.73382C383.953 6.25068 383.039 6.00911 382.01 6.00911C380.351 6.00911 379.006 6.58677 377.977 7.7421C376.948 8.89743 376.433 10.4414 376.433 12.3739C376.433 14.3065 376.948 15.8504 377.977 17.0057C379.006 18.1611 380.351 18.7387 382.01 18.7387C383.039 18.7387 383.953 18.4972 384.751 18.014C385.571 17.5309 386.201 16.8272 386.642 15.9029H392.566C391.935 18.2976 390.685 20.1882 388.816 21.5745C386.946 22.9399 384.699 23.6226 382.073 23.6226C379.93 23.6226 378.008 23.15 376.307 22.2047C374.626 21.2385 373.314 19.9046 372.368 18.2031C371.423 16.5016 370.95 14.5585 370.95 12.3739ZM410.706 5.66251V10.1368H417.921V14.296H410.706V19.1484H418.867V23.4651H405.318V1.34578H418.867V5.66251H410.706ZM437.205 19.3059H444.263V23.4651H431.817V1.34578H437.205V19.3059ZM461.674 5.66251V10.1368H468.89V14.296H461.674V19.1484H469.835V23.4651H456.286V1.34578H469.835V5.66251H461.674ZM496.177 12.1219C497.458 12.3949 498.488 13.0356 499.265 14.0439C500.042 15.0312 500.431 16.1655 500.431 17.4469C500.431 19.2954 499.779 20.7658 498.477 21.8581C497.196 22.9294 495.4 23.4651 493.089 23.4651H482.786V1.34578H492.742C494.99 1.34578 496.744 1.86043 498.004 2.88972C499.286 3.91901 499.926 5.31591 499.926 7.08041C499.926 8.38279 499.58 9.46459 498.887 10.3258C498.214 11.1871 497.311 11.7858 496.177 12.1219ZM488.174 10.2943H491.703C492.585 10.2943 493.257 10.1053 493.719 9.72717C494.202 9.32806 494.444 8.75039 494.444 7.99418C494.444 7.23796 494.202 6.6603 493.719 6.26118C493.257 5.86207 492.585 5.66251 491.703 5.66251H488.174V10.2943ZM492.144 19.1168C493.047 19.1168 493.74 18.9173 494.223 18.5182C494.727 18.0981 494.98 17.4994 494.98 16.7222C494.98 15.9449 494.717 15.3358 494.192 14.8946C493.688 14.4535 492.984 14.233 492.081 14.233H488.174V19.1168H492.144ZM524.289 23.4651L519.688 15.1152H518.396V23.4651H513.008V1.34578H522.051C523.795 1.34578 525.276 1.65037 526.494 2.25954C527.734 2.86871 528.658 3.70895 529.267 4.78026C529.876 5.83056 530.181 7.00689 530.181 8.30926C530.181 9.77968 529.761 11.0926 528.92 12.2479C528.101 13.4032 526.883 14.2225 525.265 14.7056L530.37 23.4651H524.289ZM518.396 11.3026H521.736C522.724 11.3026 523.459 11.0611 523.942 10.5779C524.446 10.0948 524.698 9.41208 524.698 8.52983C524.698 7.68959 524.446 7.0279 523.942 6.54476C523.459 6.06162 522.724 5.82006 521.736 5.82006H518.396V11.3026ZM556.785 19.558H548.53L547.206 23.4651H541.566L549.57 1.34578H555.808L563.812 23.4651H558.109L556.785 19.558ZM555.399 15.3988L552.658 7.30098L549.948 15.3988H555.399ZM591.612 1.34578V5.66251H585.752V23.4651H580.364V5.66251H574.503V1.34578H591.612ZM609.157 1.34578V23.4651H603.769V1.34578H609.157ZM642.302 23.4651H636.914L627.902 9.8217V23.4651H622.514V1.34578H627.902L636.914 15.0522V1.34578H642.302V23.4651ZM670.344 8.34077C669.944 7.60556 669.367 7.0489 668.611 6.6708C667.875 6.27168 667.004 6.07213 665.995 6.07213C664.252 6.07213 662.855 6.64979 661.805 7.80512C660.754 8.93945 660.229 10.4624 660.229 12.3739C660.229 14.4115 660.775 16.008 661.868 17.1633C662.981 18.2976 664.504 18.8648 666.436 18.8648C667.76 18.8648 668.873 18.5287 669.776 17.8565C670.701 17.1843 671.373 16.218 671.793 14.9577H664.956V10.9875H676.677V15.9975C676.278 17.3418 675.595 18.5917 674.629 19.747C673.684 20.9024 672.476 21.8371 671.005 22.5513C669.535 23.2655 667.875 23.6226 666.027 23.6226C663.842 23.6226 661.889 23.15 660.166 22.2047C658.465 21.2385 657.131 19.9046 656.165 18.2031C655.219 16.5016 654.747 14.5585 654.747 12.3739C654.747 10.1893 655.219 8.24625 656.165 6.54476C657.131 4.82227 658.465 3.48839 660.166 2.54312C661.868 1.57684 663.811 1.09371 665.995 1.09371C668.642 1.09371 670.869 1.73439 672.675 3.01575C674.503 4.29712 675.711 6.07213 676.299 8.34077H670.344ZM695.573 0.116928C697.821 0.116928 699.617 0.705096 700.961 1.88143C702.327 3.05777 703.01 4.71724 703.01 6.85985C703.01 8.83441 702.358 10.3784 701.056 11.4917C699.775 12.584 698.073 13.1406 695.952 13.1616L695.794 15.5248H691.068L690.91 9.66415H692.801C694.418 9.66415 695.647 9.46459 696.487 9.06548C697.348 8.66637 697.779 7.94166 697.779 6.89136C697.779 6.15615 697.579 5.57849 697.18 5.15837C696.781 4.73825 696.225 4.52819 695.51 4.52819C694.754 4.52819 694.166 4.74875 693.746 5.18987C693.326 5.61 693.116 6.18766 693.116 6.92287H688.043C688.001 5.6415 688.263 4.48617 688.83 3.45688C689.419 2.42759 690.28 1.61886 691.414 1.03069C692.57 0.421515 693.956 0.116928 695.573 0.116928ZM693.494 23.7172C692.549 23.7172 691.771 23.4441 691.162 22.8979C690.574 22.3308 690.28 21.6376 690.28 20.8183C690.28 19.9781 690.574 19.2744 691.162 18.7072C691.771 18.1401 692.549 17.8565 693.494 17.8565C694.418 17.8565 695.174 18.1401 695.762 18.7072C696.372 19.2744 696.676 19.9781 696.676 20.8183C696.676 21.6376 696.372 22.3308 695.762 22.8979C695.174 23.4441 694.418 23.7172 693.494 23.7172Z" fill="#0F5B92"/>
</svg>
